# xmcd
#
# Track frame offsets:
#	150
#	11872
#	25602
#	38357
#	51307
#	63320
#	77022
#	87962
#	101350
#	113590
#
# Disc length: 1672 seconds
#
# Revision: 0
# Processed by: cddbd v1.4PL0 Copyright (c) Steve Scherf et al.
# Submitted via: audiograbber 1.82.02
#
DISCID=6a06860a
DTITLE=Various Artist - Country Gold Vol. 2
DYEAR=1992
DGENRE=Country
TTITLE0=Patsy Cline - Walkin' After Midnight
TTITLE1=Waylon Jennings - Love Of The Common People
TTITLE2=Vern Gosdin - When Love Takes Over Your Life
TTITLE3=Johnny Paycheck - Take This Job And Shove It
TTITLE4=Ernest Tubbs and George Jones - Half A Mind
TTITLE5=Vern Gosdin - Just Give Me What You Think Is Fair
TTITLE6=Waylon Jennings - Mental Revenge
TTITLE7=Johnny Paycheck - She's All I Got
TTITLE8=Patsy Cline - A Poor Man's Rose (Or A Rich Man's Gold)
TTITLE9=Roy Clark - Are You From Dixie, 'Cause I'm From Dixie, Too
EXTD=Enviado por: Alfredo armendariz de Alfred's Sound Systems de Nuevo Laredo,
EXTD=Tam. Mx 88250
EXTT0=
EXTT1=
EXTT2=
EXTT3=
EXTT4=
EXTT5=
EXTT6=
EXTT7=
EXTT8=
EXTT9=
PLAYORDER=
